<mxfile host="Electron" modified="2024-02-10T11:26:25.705Z" agent="Mozilla/5.0 (Windows NT 6.1; Win64; x64) AppleWebKit/537.36 (KHTML, like Gecko) draw.io/21.1.2 Chrome/106.0.5249.199 Electron/21.4.3 Safari/537.36" etag="UZV5G8ro3OeGRBrzhiYq" version="21.1.2" type="device">
  <diagram name="ページ1" id="IVbcnfsRv1ovkLGTtjmn">
    <mxGraphModel dx="1434" dy="791" grid="1" gridSize="10" guides="1" tooltips="1" connect="1" arrows="1" fold="1" page="1" pageScale="1" pageWidth="1169" pageHeight="827" math="0" shadow="0">
      <root>
        <mxCell id="0" />
        <mxCell id="1" parent="0" />
        <mxCell id="WWBzB1PbY3KmT62K1JIV-1" value="" style="shape=image;verticalLabelPosition=bottom;labelBackgroundColor=default;verticalAlign=top;aspect=fixed;imageAspect=0;image=data:image/png,iVBORw0KGgoAAAANSUhEUgAAAkoAAAF3CAYAAABaL2R3AAAAAXNSR0IArs4c6QAAAARnQU1BAACxjwv8YQUAAAAJcEhZcwAADsMAAA7DAcdvqGQAAG+dSURBVHhe7Z0H2NTE+sU/qWIBRQQVFUWsIMgfCxau2BUQFa9YwQZeEaUjRYqAAqIiKhYUbNhAAQE7FgRBpIkUKYp0kCa9l/nvCVk2mbxbks2WfHvOfX7PlWRmktndb3N25p138pRShBBCCCFEQDxICCGEEEJolAghhBBCoiIeJIQQQgghNEqEEEIIIVERDxJCCCGEEBolQgghhJCoiAcJIYQQQgiNEiGEEEJIVMSDhBBCCCGERokQQgghJCriQUIIIYQQQqNECCGEEBIV8SAhhBBCCKFRIjnM+++/r9q1a2dj1apVoVNyeUJI7jJ69GjH98W8efNCp+TyJP8gHiQkF7jttttCfwF5Nn7//ffQKbk8IcQ7e/fuVf/++6+D3bt3h07LdbKJli1bOr4vvvjii9ApuTzJP4gHSXzGjRunqlWrZuPuu+8OnZLLk+yDRonkZ3799VfHd1Q0LrjgAnX11Ver66+/XtWvX1/BFLz88svqxx9/VLt27Qo1J1/DDVOnTnX8vYExY8aETst1sgkapdxFPEjiM2rUKMcfzf/93/+FTsnlSfZBo0TyMzAg+ufbC4cffrj673//q2B09Gu4gUYpeTD61rt3bxtvv/126JRcnviDeJDEh0Yp+NAokfyMX0YpzCGHHKLuuOMOtXnz5lDz8jVjQaOUPFu3bnXcA587qUc8SOJDoxR8aJRIfsZvoxTmnHPOUQsXLgxdQr5uNGiUkodGKTOIB0l8aJSCD40Syc9IRumoo45SDz30kMh9991nTLFVr15dHX300Y66VipWrKjw0NavGQsapeShUcoM4kESHxql4EOjRPIzklE6++yzQ6fk8lb27dunEAx+5513qgIFCjjaAQ8++GCoqFw/P0KjlLuIB0l8aJSCD40Syc8kY5SsfPrpp6pYsWKOtmCg5s+fHyoi18tv0CjlLuJBEh8apeBDo0TyM34ZJYBUAXpboEePHqHTcp38Bo1S7iIeJPGhUQo+NEokP+OnUcJU3AknnOBor3bt2qHTcp38Bo1S7iIeJPHJtFHasGGDEQT57LPPqiZNmqjrrrvOSBx35plnqvLlyxv/j39fc8016pFHHlH9+/dXf/zxR6iq3F4iLFmyxMilYkVaKoxyL7zwgnFP+GI+4ogj1JFHHmncF75Y+/Xrp1avXu2olyzTpk1THTt2VJdddpkqV66cKlq0qBG8iv++9tprjXOTJk1S+/fvDxX31yj99ddfauDAger+++9XNWvWVFWqVDH6W6lSJXXppZcaSfx69uypvvzyS8/LqyX+/vtv9dprr6mGDRuqG2644eBn4OKLLzZea/R55MiRRgZkvW48Nm7cqL7//nv13HPPGZ8hJCO0fsbOOOMM499IVIjP4EsvvaRmzZoVqiq3lwjLli1zfMZwH3q5mTNnqk6dOqn//Oc/qkKFCsbUUOnSpdW5555rJH4dMWKE2rFjh6NeMoTjdrp27aquuOIKY/XXscceq4oUKWKYCFz79ttvV2+88YZaunRpqIrcTrrw0ygBxCTp7eE10MvFAu+b9b2dPn166LBcNhGQV+ibb74xgtHPP/98dfzxx6vChQurkiVLGp/TevXqqeeff972fuBvxnoPif7NJ2qUli9fbvwt4O8Frze++/AdeOqppxp/o3379nW1VRK+68P3On78eMc9nHXWWbb+RCPZ7/9cRjxI4pMpo9S6dWvjAYWcJvr1EwFfHm+++abCl77edjzwMNTbw4M0fB5fgjfeeGNC94YvjqeeesrTfehMmDDByCwsXUfitNNOU6+88ophJPRzbo3SZ599ZhgjN+8HHqx40OIevJgmGL1hw4apypUri+1L4Jq1atVS2N8uXqbl9u3bG1++Xj9jp59+unr99dcVtqzQ245HvIcR/rtq1aqOMhInnXSSYUzDdb2yZ88e48F38skni9eRwMO6cePGGTVMfhul7t27O9rDa6KXi8WJJ55oq49klnqZRMB7MmDAAMMYWduLBuKp8PnHdwW+p63n0IbevkS8z+acOXPULbfcktDfDfoNw53I38jw4cPFNtzCkSfviAdJfDJllLAsV7+uF/Dra8WKFaEm5etIRDNKW7ZsMVbARFsdEwv8Ave61xO+ZHBPXh/oEokapfXr1xtLqaU23FC8eHGFETi9/WggeBbvndRWomD0A59fve0w+oPEK+edd55roxDtYbR48WLDXOrnEuGJJ54INS1fLx6LFi0y+iG1mwgY0YRh0dtNB34bJYyIJtueH0YJI0IYvbO24wb9+yJZo7Rt2zb18MMPq4IFCzrOxwPGaufOnaHm5WsCGqXMIx4k8Qm6UQKYsnBjliSjhKk/jHDpx93QpUuXUPPyNaOBaZWbb75ZbC8ZEjFKMEl+mQkwd+7cULPytazAlGJKQWrDLbHMg599O+WUU1wZQelhhGkVGA79uBswfahfKx6YrjjuuOPE9tyA0SU87PT2U43fRgmj2Xp7NWrUCJ2Sy0ska5SmTJmiypQpY2sjWZIxSr169TJeU/24Gx5//PFQ8/I1AY1S5hEPkvhkk1FCvEjdunWNP7g+ffoYQ9L4/w4dOqgHHnjAiJeJNuqCOXz9GtGQjFI0ypYtqy6//HJjywNMx8WaJipUqJCaN29e6BLydSUaNGggtgVKlSpl5H9B/7EXElbmPPbYY0acEuIFpDphEjFK0pQdwJRemzZt1KBBg4wpH2yc/MknnxjTNrgfxLNI9RIxSl999ZXxwJXqIz4HrzGmMnFt7P2EPiNeKtpDxa1RguHBNdq2bXvwMwaTjBgojCZiOizaZ8xNwK/0MIoGXm/ER+EzhmkVxIBI5QBGO2F89OtF47fffjOmh/V2MIWJ1xVL5jHahODa7du3K8RWjR492hhZOPTQQx31SpQo4SmbdTL4bZQQc6O317Rp09ApubxEMkYJP+oQh2atHwajOYhXw+caf2/4fCI2Cd9ZiNfDd4xUDyRjlKKBNnE/+GziuxmjktH+PnDvsb53EIOF73ggfcYRixk+Hwv8/eptk8QQD5L4ZNIo4WF/zz33qA8++CDhESEE2cK46PcMfv7551ARuZ6VeEYJDwgE/U6cOPFgwLQVTJ9IAdSgefPmjvLRQL+lNmDOPvzww5jz/pjm+/bbb40vMHzB6G3EM0oIjNbr4Msegdzx4q1wHq8NTJ712vGMEqYaMEVnvSbAQxvGRQp2DoNrIi4D04TWqdF4Rgkm4a677lKDBw9WCE7Vy0ggRuOqq66y3WOY7777LlRErmcl3sMIxg+GMFr+HpihaJ9zPDClz6XOpk2bjAUAen1M/SUylYgyktnEa6OXTSV+GiVMr+Nzrrf38ccfh07LdSS8GiXEJMF4WOuGwY+QeO8LAqLfe+89Y6GHXt8vo4S/6f/973/G96n0OYOZxt+UVBf19PISXPWWGcSDJD6ZMkr4I8QvWP14IkT7smnRokXotFzHSjSjhF9KjRo1Mn5V63V08AUimSWMtiTyEMMXnjQNg19s69atCxWR60l4WfWGmAK9zrvvvhs6JZePBlb94TWDeYlnlDBqol8TDxgYPr1sLLDqBasgUT+WUYKxQtyFfjwRYFLD17CCz45eViLawwjGDSNYidwXPkfYjkNqByNzenkdmHa9HmLp8Pejl40GzBZGvPR2kl3l5QY/jRJGKPW2MA3sdmWhV6OEESJrPYDvHawg08vGA6N71naSNUq4j3vvvdeIo9PrSOBHrt4G7imRhS00SplBPEjikymjlCz4otbvO9ElvpJRwqoX68q3RMCUhRT4mMjUxNNPP+2ohy86tyYJeDFK+pcsHuBeVneF+eWXX2LeO8yQ9XphsNpOL5sIMBFIJ4DpM/2cX8CQ6fcL06CXk5AeRjD3GFXTy8YCI4dIzaC3hdQBelkra9euVYcddpitDqYVvaQawJSJtR0Ac6yXSxV+GSVMIUujr16STXoxSngvMfVrrQdatWoVOi3XiYWfRgmj2F9//XXotFxHAiO00jQ6RmT1sjo0SplBPEjiE1SjBPQvK0zr6GUkJKOEL2O9XCIg/47eFpa86+WsYCRNirlBHJBeNhHcGiXpSwqvpV7OTxBXoF8z3sM+G8BCAes940GbyIih9DCyLsF2gxQEiwdzrBHZJ5980lEHRkEvlwjoL9IsWNtCjIleLlX4YZQwWipN++LHVbzVWhJejBLuwVoH4HX0OrLup1FCXJpeLhGQW01vCyEFejkdGqXMIB4k8QmyUUKshn7vifxiloyS29GkMPhlrbeFRH16OSuYNtHrIGdPIg9gCT+MEoJEvSRzTAQ8CBCHpF9zxowZodNynWxBWsqPaVO9nI6fRgkjEdI0LZJG6mXD4PNkLQtDr5dxw6OPPmprD6xcuTJ0Si7vJ16MEqYMJ0+ebCSFlX7MAKwEdDvCF8aLUZKCyLFIQy+XKH4aJa+fTelzgSB0vZwOjVJmEA+S+ATFKCEIE3Pn+PLDSiwENCLppH7vmHLQ6+r4aZSwIk1v65lnngmdkssDrOrT6ySz15SXqTdpeT4C2PVyfoDXVr8WYrH0cpkGX974jGHpNj5jCACXpr0SiWHz82EEpFxXiHfRywEYGL0sAsf1cm6A+dfb9DoK6xbJKGHK++ijjxaJtTIsDEbIkIVev1aiuDVKiAvTp0JBMok8s8EodevWzdEWjunldGiUMoN4kMQnm4wSTA5WYyEhHFZzIaYCc+fSMuVopNsowRTpbSHzr17OyoUXXuioM3bs2NApuXw8vBglpFPQ6wCstEIQtNfRLQlk7tWv43Y5tl8gdxQ+88gbg1VG+KzjoefmM5YJoyRNpeHXvF4ODBkyxFEWf1d6OTdI039Dhw4NnZLL+4lklLxSoEAB43XDiJN+HTe4NUqI27GWB/hu08u5IRuM0osvvuhoK9YCizA0SplBPEjik2mjhJEiLElHbqBEfgnGI91GSVrFEs8o6bESWG2SzBe3F6OEZe56HSt4EGCpL3IZISVDMoHeiEXS20eeJL1cqsAKs7feesvYsypaDic3ZMIoSakkYPT0ckAyVakA27vo104FfhklrNLya58wt0bphx9+sJUH2C9NL+eGbDBKUtwVjVL2Ih4k8cmkUcJebdGSF3ol3UYJe47pbcUyStifTC+faBB6NLwYJYANaPV60cCDALlbkIIBIwlu4pnwQNDbS8Y0uAFGz4+s1FYyYZQwFai3Fy0BZrNmzRxlUwE2jNavnQr8NEp+jZS6NUpYqGEtD3A/ejk3ZINRQsJSvS0apexFPEjikwmjhOBUaZQhGjASiEe65JJLjKysyPWBJbXSUttsN0rYbVsvj01P9XJu8GqU8D64MUtWMPp36623GvE8ers60lRjoslBvYKYkGg5iCSQ/BSfMSwQqFOnjvEZwwNFyiGUCaP0008/OdqLtu2GlN8mFXjJ/eMFyShh2gqGPRrRArgxDay37wW3Rgmjb9byINmYQBol4hbxIIlPJowStiPRrxkGI0zYPgEjAdh+IdYKoyuvvNJRP9uNEjIx6+Wxx5xezg1ejVIYLA32ukEtYj5gWmNNzWHrGb0egvL1cn4ivcdhEMiOfdcwHYd8XLFGx7CliF4/E0bpxx9/dLSHBJ56OSDFn+H9RXk/wUNSv3YqkIxSvFVvyPQPM6XXwzQ3FoLo5d3i1igh55e1PMD3nF7ODTRKxC3iQRKfdBulzz//3HE9gIfXO++84yqnSRCNEr7A9fL40tXLuSFZoxRm2rRpxpccRlWkxHyxiJUTqWbNmo7yXl/vRIg2VYMHC+Lh3CRdzBajhMScenvIsq2XA9IPEUzd6eWCghejBPB5hoHR6yJVRTKLJ4Bbo/TRRx/ZygNOvdnr0SilHvEgiU+6jZK0RxGSvrnZmT1MEI0Sgtf18vjC08u5wS+jZAWGFfu5YVULpqHwHunX0ImWaA5TdHrZeEk5k0Hapw15hbzkzMkWo4Tgd729aCsHsaGxXtaPUZRM4dUoAXzOMOqp18cPM7cbWFtxa5SkGDOMyunl3ECjRNwiHiTxSadRgonB0Lf1WvgSmzlzZui0XCcWQTRKCCaVVvclk+wxFUZJAjlfEGuBh5R+PYApNr0OwDSXXjbWa5QMWD2obyuDz1wisVQS2WKUEESvt4c94/RyQEpZ0blz59ApZ9kgkIxRAkgFodcHiD9bs2ZNqIhcLxZujRJWjlrLg/yQHsBPo1S5cuXQKbk88QfxIIlPOo2StCQdgb56uUQJolECFStWdNTB6I1eLlHSZZTCIFBaGrWAIUGwul4eq6P0sgjK18v5AYLE9Wsl8wWcLUYJgdt6e9Eyc+OzrJdN5u8s0yRrlABGRfU2ABaIeNn/zq1RipZw0stIepj8ZpSwmEIvR/xFPEjik06j9OGHHzqulcx+X0E1StKqJCTZ1MslSrqNEsAXv7RfHZJV6mWxYa5eDg+NjRs3Osomi5QYEVN/erlEyQajhJE8fZQMmxjjPdDLAmwZoyfQxMit1+06Mo0fRglTydK0P0Csl9u0AW6NEpC2XMIWK3q5RAmyUZLSpGAVs16O+It4kMQnnUYJW0Lo14oWkJoIQTVK0gjLBRdcEDoll49HJowSuOaaaxzXlV7Hffv2iaaqf//+jrLJIuWruemmm0Kn5PLxyAaj1KlTJ0dbeM/1clakvw2kgtDLBQE/jBLANFv58uUdbQFsRaSXj4UXo4QfQ9Y6AObAy6a8mGLGNa1tBckoAd3MlypVKnRYLkv8QTxI4pNOo/T11187rnXuueeGTsnlY4GtKPQdzUEQjBL2E5MCTPFA0MvGA8HhMFl6W7GMEkYovv3229B/yucTBdnU9evOnTs3dMpZtkuXLo6y+GJcvXp16LSzfCLgwYeMx9ZjWM2kXweB3NYyiYIRL3w+9fbSaZSQTkLaXgWjdHpZK9KPEnzmvO4Sr+P178ULfhklgK1E9JGYMG6yxXsxSljxqo8MAsSf6WVjgc8Rcq/p7QTNKJ1wwgmOuv/880/olFyeJI94kMQnnUYJBkG/FuJaJk2aFDot15HAH7X0RwaCYJSAtGQexs9NUPe4cePEhIggllHC640yiNtYt25d6JBcLhaIMdC3YsEO99F+HeM6mC6ylgdY+YMtRvTy8cAUGzJu61/KiJHSFwwAJGy0lovHN998Iz6MQLqMEja3leLZMIWkl9VBMlFp02g80N2+FlZgsm+55RZ16qmnhv4pl/EbP40SwA82aUEFtrdBHKVeXsKLUQLYw9JaLwxyKsWaikaeMnx+/vOf/4j1QdCM0nXXXeeom64kprmKeJDEJ51GCUi7sWM4PJGdvGfMmGHs16XXtxIUozRixAhHPYDEgPGWLeN1wHSSZAjCJGKUAH5dt23b1tUu5ngI33XXXbbrgUaNGoVOy3WANIUEEFC7YMGCUBG5nhXcu3VaSfpSlpJnnnzyyQktB8fqJGTm1utb8WqUrrjiCuOBhKlIvbzOV199ZZgRvQ3kt0IiVr28BB760sglTAI+ozC7ep1o4JoNGjQ4uFdekI0SePnllx1tAph9jDrp5XW8GiWYX1zDWjcM/hZhpGAW8L2CvHJYsYdjxxxzjFjHStCMkjTKjLQNQY2lCwLiQRIfyShhePjoo4/2BWTatl4P2ZD16wEE9zZu3FghxgTpAhYuXGhkTUaCyqeeekqdd955Yj2doBglIO2BBvAwRAAy9sLDAxMjR7gOvoCkEQaJRI1SGDwAEY+D4FJsHCoFt2LqANMT0nQUvuTjreBBAKc0TQiQBPDBBx80dvbHqFA40zcys2MlGx4YkgGSvpSlRQMAU1hIxogtLvD64DMGA4DPGOJHom17oePVKIVBvBbu49VXXzXeX7wfmEpD359++mljhZpUDyCvlX6tWMTaIBcPJUz7jBw5Ui1fvvzgaCDiX/AZwMMT+8ZJo5ZBN0oAW4jo7QLEDcWbAvJqlACSTxYQDKwbsOWOPioWNKOEaWXpxx5MIVJc4G8CpgnfO3gWIFksvhcTGVElMuJBEh/JKPkJ/pit18MDUFr94RZM++CLQT8eJKOEBzXidPT6bsDrK2366tYo6aBdTG8iNxIeCrEydcNYDxkyJNS0fD0reABJo4o6+AJNZKd/6UsZJk+a2nQLpgqlbTCSNUpeefTRRz1t6tq6dWuxPYlEXnOQH4wSVg1KcXYAZjXWlHAyRglg130pXikRqlevbozA67FWie4ZmS1GCUjb7cQjlTMe+R3xIIlPuo0SQABvtNiaRMA8/aJFi2xTMGGCZJQAfilFG4qPB76sMdridtUbtnbQy3sFI4H4stSvEQsEoEv37IVoaRUQEyXF6CQKzPyff/5pjLLp59JtlGAae/ToEWpWvlYiYCQQoxBS+15APJ1+jVSRKqMEMGKJtvT2AR7i0aZJkzVKACPFifxoCIPReYz4htNC6EYJo83htmORTUYJ39eYFtfbiAWNknfEgyQ+mTBKACuWJKMTC4xwYDVP+Fd1fjBKAFONiU77AExTPfbYYwor/1DfS3oATDlh+ieZh2ft2rU9xxPgPcSWJ24eFGEw6oGHWLz9uvD6xItp08G0GKaHww9IP40SlqAjTkk/HgtMVWIEUG/fC7hvxJG53ccvDEZAMFKH2Bk38U3JkkqjBDA6E21kF4lV9fLAD6MEYHowFYe/Yd34AByrW7euMU27efPmUJVIXVzTWvbSSy+1nY9GNhklgKk1xCnq7USDRsk74kESHzxQscVEqoi1QzYeRpiyQexJtMBkfKljeBwPLyTSs9Z//vnnHdfDaIW1jAQe0Ho9r/s+ITuy3hZiXvRy8cAXJnYYx0hGtNcCQe+YRtED3wcMGOC4B8ScWMtEA1mJseEq6uALKNbUCwwaDF27du2ipgFwCwwTXi9MKyH2KVrfMb2IBwb66malHtrHfl8XXXRR1LgQ9Aur7xATphuAl156yfHaJrIyMdbDCAHjHTt2NO5JytaM6T7E62HlXSKB327Bj4k33njDCM4uV66c4/ph8F6cccYZ6s477zRi07xu95EsiJfS34OuXbuGTsnlvYCRWf0aYTCyqJfH34C1DH646GW8gM8ffnzA1Orfd1bwfaH/rWARgl5OAjF61nsH+Ezq5RIBo9N6W/g+0cvFA3+n+NGOFZWSaS1WrJjx/YS/i48//jhURW6HxEY8SIIDYlcQ2IrNO/GLFQ83TEshAFgvm9/BLywMyyMoGSNoyBWU6KqwZMHrDSM2depUI68TwIgGjFE63gs8HPCQwMo+PLywAgmfDb2cFzDli6Xh4c8Yfg3ji95Lwr94JPqrHTF7MC54zZE+IxX3Eg8Eb2MqO/yeT5482fi84bhelmQHMG/656t9+/ahU3L5oIEpUfQRfxPpHL3M74gHCSEkE/g5vUGIjjTlj9xiejlCrIgHCSEkE9AokVSCqWLrZwvTcBiJ1ssRYkU8SAghmYBGiaQKxBjpny1kudbLEaIjHiSEkExAo0SigVhMJBaNtzJVAivkpL3/vCwgIbmHeJAQQjIBjRKJhnX7FGQBb9q0qbFoA6v7pFWO2F4I52vUqGH7PIXBStlUrI4k+Q/xICGEZAIaJRKNaPvMhcHWT0gFgrxxWBYvlQmD7T70dCGEREM8SAghmYBGiUQjnlFKFOQWQ0oHvX1CoiEeJISQTECjRKKRrFFChvS77rrLt/xiJHcQDxJCSCagUSLRwGbYvXv3Nrbh0bdCiQaW/2N/vWbNminU19skJBHEg4QQkgmQXRzTIlY2btwYOiWXJ7kL8h/99NNPRsB23759DROFTZBffPFF4xhWySWyhyUh8RAPEkIIIYQQGiVCCCGEkKiIBwkhhBBCCI0SIYQQQkhUxIOEEEIIIYRGiRBCCCEkKuJBQgghhBBCo0QIIYQQEhXxICGEEEIIoVEihBBCCImKeJAQQgghhNAoEUIIIYRERTxICCGEEEJolAghhBBCoiIeJIQQQgghNEqEEEIIIVERDxJCCCGEEBolQgghhJCoiAcJIYQQQgiNEiGEEEJIVMSDhBBCCCGERokQQgghJCriQUIIIYQQQqNECCGEEBIV8SAhhBBCCMknRmnPnj1q3rx5asSIEap3797q/vvvV3Xr1lVXXnmlqlatmjrjjDNU+fLlCSGEEOIjlStXVpdccom69tpr1e23367atm2rBg4cqH7++We1bt260CNafm4HCfFgtrNv3z41bdo09eyzz6obbrhBHXHEEaGe5BFCCCEkizjrrLPUI488oj799NPAGifxYLaCUaMnnnhCnXzyyY43gxBCCCHZS+HChVWdOnXUJ598onbu3Bl6rMvP+mxDPJhNYPRo+PDhxtCe9MITQgghJFgcffTRqlWrVmrFihWhR738/M8WxIPZwN69e9X777+vKlas6HiBJY455hhVqVIldcUVV6j69eur//3vf6p58+bGfGmnTp1Ujx49CCGEEOITTz75pOrQoYNq2bKlatq0qREfjBGjCy+8UJ1yyinGCJL0vLZStGhR43n9999/hx79sh/INOLBTDNhwgRVpUoVxwtq5bDDDlPnn3++uuOOO1Tnzp3Vc889RwghhJAs4ZlnnjEMFAK944XMFClSRHXs2FFt27YtZANkb5ApxIOZYu3ateqBBx5QhxxyiONFBAUKFFDnnHOOatiwobG6TXpjCCGEEJJ9tGvXTl1zzTXGtJv0jAcYiRo5cmTIEsg+IROIBzPBDz/8oI4//njHiwYKFSpkxCjBbUovPiGEEEKCAVasY1DkxBNPFJ/5oEGDBmrr1q0heyB7hnQiHkwniEXCPGfBggUdLxRGkGCQunTpIr7YVrp3727Mj9auXVtdcMEFhis97rjjVMmSJVWxYsUIIYQQ4jNHHnmkESMM04OY4po1axpxwohbgiGSntdhcP6+++5TpUqVcjz/wbnnnqvmzp0bsgqyf0gX4sF0sWXLFnX99dc7Xhxw0kknqRYtWogvbhicx5tywgknRJ2uI4QQQkj6QSwxFlnBOD311FPicxwglAZxTJg90ttAnsTPP/88ZBlkH5EOxIPpAPFIiIzXXxSMLN14441RnShebETVY7RIr0sIIYSQ7AMr4KpWraoeffRR8dkOEMNUtmxZR10YqHfeeSdkHWQ/kWrEg6lmyZIlRrZO/cVAgFezZs3EFxBTa1dffbUx1KfXI4QQQkgwOO2004yUANKzHqNLl156qaMOZo0wgKL7iXQgHkwla9asUWeeeabjRcALh7wM+ouGF6ZevXpxDRKWFtaoUUM9/vjjatCgQWrixIlq4cKFRsr0HTt2hC5NURRFUZSf2rBhg1q+fLn6448/jNVqffr0MQKxYwVqhzn77LONPEz6cx/cfffdYuxy//79cVnRX6QK8WCqQEwSAq31jmMOU1ruj2SRiFXSy4fB/Oc999yjvvzyy3DuBYqiKIqiskALFiwwcinFShyNKblatWqJ4TYPPfSQkZDSWh6LvD7++GM0L/qMVCAeTAXY4R/BWtYOAxgnOFD9BcIuxNGyesI8vfjii2rz5s2hpimKoiiKymb9+uuv6tZbbzWMjvRcP/3001XXrl0dXgA7bGBQxFoWM0hIKRSS6Df8RjyYCpADydpRULlyZYdJwr8vuugiR1mAJYivvfaa2rVrV6hJiqIoiqKCpDlz5hhpfKRnfPHixQ1jZPUEAAHg+sBJmTJl1MqVK9Gk6Dn8RDzoN998843DRVaoUMEx3darV6+oQ3QPPvigEW+UjUJQmnTPhBBCSDrBdFcQ9Nlnn4mhNZhqw5Sb1RsAJKjUfQT2dkUuxpBE7+EX4kE/WbVqlSpdurStcxgZ0nMqwCQhoNtaDhx11FFq2LBhoaayVzRKhBBCsoGgGCVo/fr1RjogvQ8I4kYCaatHADfddJOjLBJWhyT6D78QD/rJnXfeaesU8iHoiSQx3YY93KzlAI6ZOwpntWiUCCGEZANBMkrQ/v371dNPP+1IGg2v8Mgjj9i8AgK+sfjLWg7xSlhxF5LoQfxAPOgX33//va1D4Oabb7Z1HEgr4apXr561U226aJQIIYRkA0EzSmEhoaSemfvQQw9Vbdq0sfkFpBHC1mTWcpiCC0n0IX4gHvQDBFzrSSVPPfVUxxLA//73v7YyAPu7mZvhBUI0SoQQQrKBoBol6JNPPnHkTjr22GONESerb0AMk7UM+OCDD9CE6EeSRTzoB1idZu0EgrBatWpl6yycoh7JjmBuzFsGSTRKhBBCsoEgGyVowIABjj6dd955Nu8AqlSpYitz8sknh1fEi54kGcSDyYKcSeXLl7d14vLLL7d1EnFJxx9/vK0MhtOwvUnQRKNECCEkGwi6UYJatmzp6FfDhg1tHqJz586OZJRvv/02qou+JBnEg8ny3nvv2W4ewVbdunWzdVKPdEcgF5YLBlHxjBLyPcA4EkIIIcmAuB3pORMmPxil3bt3GyE41n6VKFHCMQV35ZVX2sog7VAq0gWIB5NFj0qvWbOmrXNdunRxOMGmTZuGqgZT8YzSp59+apakKIqiKO+6+OKLxedMmPxglCCseNczcuteAqkB9PAdM52Q6E28Ih5MhsmTJ9tuGlHsMEbWzmHzWmsZjLhgY72gikaJoiiKSodyxShBGEGy9i0RP1G3bl1UFf2JV8SDyYBU49abrlatmq1TcICYirOWeffdd0NVgysaJYqiKCodyiWjhODsM844w9Y/pAKweor27dvbcjBhhGn16tWoLnoUL4gHvYJOlSpV6uANAz0V+TXXXGM7jxfBnFMMrGiUKIqiqHQol4wShIEUa/8QtqPv7FGuXDlbmX79+qGq6FO8IB70ypgxY2w3i+Ar66a3yKGELUmsZQYNGhSqGmzRKFEURVHpUK4ZJayiRw5Gax/r169vM0r16tWznccq+5BEn+IF8aBXOnbsaLtZzB1aO6MbCqQD2LlzZ6hqsEWjRFEURaVDuWaUIAy4WPuIfWGt3gIhPdbpN4w6bdu2DVVFr+IW8aBXsO2ItTPY7dfamQsvvNB2vkmTJqFqwReNEkVRFJUO5aJRWr58uS1jN0wR8ihZ/cUJJ5xgex2++eYbVBW9ilvEg17YtGmTbZ8WZOLW5xGPPvrog+fBhAkTQlWDLxoliqIoKh3KRaMEXXXVVbZ+3nHHHTZ/gek26/l27dqhmuhX3CIe9MLPP/9su8mTTjrJ1okOHTrYziNWKehB3GHRKFEURVHpUK4aJX367fzzz7d5jAcffNB2HgvHQhL9ilvEg14YOHCg7SYxzWbtxO233247b+Y6yBeiUaIoiqLSoVw1SlOmTLH1EzHOVo/RqVMn23ns/RaS6FfcIh70Qtu2bW03WadOHVsnkFHTev6ZZ54JVcsfolGiKIqi0qFcNUqYgbJm6kacUs+ePQ96DKyqt+ZoxPmtW7eiquhZ3CAe9AJGiMI3CPRA7nPOOcd2fuTIkaFq+UM0ShRFUVQ6lKtGCTrvvPNsfW3VqpXNZ5QtW9Z2fvr06agmehY3iAe9oK94a926ta0DpUuXtp2fP39+qFr+EI0SRVEUlQ7lslHSQ3gaNGhg8xn6PrNff/01qomexQ3iQS9UrFjRdoPIqWTtwBFHHGE7bw6J5QvRKFEURVHpUC4bJQzAWPuKRJNWn4EAb+v5oUOHoproWdwgHvQCVrlZb7B79+62DuipA/bv3x+qlj9Eo0RRFEWlQ7lslJBY0trX2rVr23zGpZdeajtv7vwhehY3iAe9oOdI6t2798Gb15f1FS9ePFQl/4hGiaIoikqHctko9e3b19bXq6++2maU9FxLL7zwAqqJnsUN4kEv6FNriEAP33yvXr1s54455phQlfwjGiWKoigqHcplo/Tyyy/b+nrFFVfYjNK1115rO2+urhc9ixvEg16gUYr0T4dGiaIoivJDNEqRvtIoBUg0ShRFUVQ6RKMU6SuNUoBEo0RRFEWlQzRKkb7SKAVINEoURVFUOkSjFOkrjVKARKNEURRFpUM0SpG+0igFSDRKFOWf1m5da/4XRVG6aJQifaVRCpBolCjKHy3bsEz9b8j/zH9RFKWLRinSVxqlAIlGiaL8Ue8xvVXxx4ur7bu3m0coirKKRinSVxqlAIlGiaL80bm9z1V5zfLUkOlDzCMURVlFoxTpK41SgESjRFHJa+rSqYZJAnUG1DGPUhRlFY1SpK80SgESjRJFJa/mw5ofNEqFWhRS/2z+xzxDUVRYNEqRvtIoBUg0ShSVnPbs26OO63TcQaME+o3tZ56lKCosGqVIX2mUAiQaJYpKTqNnj7aZJFDt2WrmWYqiwqJRivSVRilAolGiqORU/+36DqMEZq2cZZagKAqiUYr0lUYpQKJRoijv2rRjkyrWupholNqPam+WoigKolGK9JVGKUCiUaIo73pj4huiSQJlO5dVe/ftNUtSFEWjFOkrjVKARKNEUd5V48UaokkK893878ySFEXRKEX6SqMUINEoUZQ3LV6/WB3S/BDRIIW59/17zdIURdEoRfpKoxQg0ShRlDd1+6qbaI6sHN7mcLVl5xazBkXltmiUIn2lUQqQaJQoypvOfOpM0RzpDJ4y2KxBUbktGqVIX2mUAiQaJYpyr4mLJoqmSOLaV681a1FUbotGKdJXGqUAiUaJotyrydAmoimSKNC8gFq2YZlZk6JyVzRKkb7SKAVINEoU5U679u5Sx3Q4RjRF0ejzXR+zNkXlrmiUIn2lUQqQaJQoyp2GzRgmmqFYVOxZ0axNUbkrGqVIX2mUAiQaJYpyp5vfvFk0Q/GYvmy62QJF5aZolCJ9pVEKkGiUKCpxrd+2XhVtVVQ0QvFoObyl2QpF5aZolCJ9pVEKkGiUKCpx9R/XXzRBiVD6idJqz749ZksUlXuiUYr0lUYpQKJRoqjEddHzF4kmKFG+mPOF2RJF5Z5olCJ9pVEKkGiUKCoxLVizIO6WJfG44507zNYoKvdEoxTpK41SgESjRFGJqdMXnUTz44ZDWx+qNmzfYLZIUbklGqVIX2mUAiQaJYqKr/3796tTu50qmh+3DPxloNkqReWWaJQifaVRCpBolCgqvsb+OVY0PV64/KXLzVYpKrdEoxTpK41SgESjRFHx9eCHD4qmxwuIc/p73d9myxSVO6JRivSVRilAolGiqNjavnu7KtGuhGh6dIq0LCIe1+nxdQ+zdYrKHdEoRfpKoxQg0ShRVGx9NO0j0exI3PTmTeJxndN7nG7EPVFULolGKdJXGqUAiUaJomKr1uu1RLMjMWT6EFW4ZWHxnM6kxZPMK1BUbohGKdJXGqUAiUaJoqJr9ebVqlCLQqLRkfhhwQ+q9oDa4jmdpp80Na9CUbkhGqVIX2mUAiQaJYqKrr4/9hVNTjRglD6e/rF4Tqdk+5Jq556d5pUoKv+LRinSVxqlAIlGiaKiq2qfqqLJiQaM0o7dO9RR7Y4Sz+uMmDnCvBJF5X/RKEX6SqMUINEoUZSs2atmi+YmFjBKUKLpBOoNqmeUp6hcEI1SpK80SgESjRJFyWo7sq1obmIRNkqJJqhEOoF1W9cZdSgqv4tGKdJXGqUAiUaJopzat3+fOrHLiaK5iUXYKLnZ8uTV8a8adSgqv4tGKdJXGqUAiUaJopz6Zu43oqmJR9goQYluontx34vNGhSVv0WjFOkrjVKARKNEUU7d8949oqmJh9UoLVizwNiuRCqnM2/1PLMWReVf0ShF+kqjFCDRKFGUXVt3bVVHtA19JwiGJh5WowRd9PxFYjmdLl92MWtQVP4VjVKkrzRKARKNEkXZ9e7kd0Uzkwi6Ueo/rr9YTqfck+W4pQmV70WjFOkrjVKARKNEUXZd/crVoplJBN0ord+2XhVtVVQsqzPur3FmLYrKn8q0Udq1a5f64IMPVJs2bVTdunXVTTfdpFq1aqXGjBmj9u3bZ5ZKjWiUAiwaJYqKaPnG5apgi4KikUkE3ShBN795s1hWp/FHjc0aFJU/lUmj9Oabb6qTTjpJvC6oUqWK+vnnn83S/otGKcCiUaKoiHqP6S2amESRjNKwGcPEsjrFHy+utu/ebtaiqPynTBglTGm3bNlSvJ5OkSJF1ODBg82a/opGKcCiUaKoiM7tfa5oYhJFMkq79u5Sx3Q4RiyvM2T6ELMWReU/ZcIo9ezZU7xWNAoXLqzGjx9v1vZPNEoBFo0SRR3Q1KVTRfPiBskoQQ8PeVgsr1NnQB2zBkXlP6XbKC1dulQdfvjhtmvg39dff73x7GvUqJFxTwULFrSVOffcc9XevXvNVvwRjVKARaNEUQfUfFhz0by4IZpRmvD3BLG8TqEWhdQ/m/8xa1FU/lK6jVLbtm1t7ZcsWVJ17NjRZlBA48aNHWbpq6++MlvxRzRKARaNEkUptWffHnVcp+NE8+KGaEYJOvOpM8U6Ov3G9jNrUFT+UrqNUrVq1Wzt33fffTZzYuXSSy+1lX3sscfMVvwRjVKARaNEUUqNnj1aNC1uiWWUun3VTayjU+3ZamYNispfSqdRwnJ/6yhRoUKFVO/evW3mxIr+LKxVq5bZkj+iUQqwaJQoSqn6b9cXTYtbYhmlResXJbylyayVs8xaFJV/lO4RpaJFix5sG/9tNSY6TZs2td3LNddcY7bij2iUAiwaJSrXtWnHJlWsdTHRsLglllGCLut3mVhPp/2o9mYNiso/SrdRKlOmjK19JJq0mhMrderUsZWFcfJTNEoBFo0Slet6Y+IbolnxQjyjNGDCALGeTtnOZdXeff6uuqGoTCvdRqlhw4a29s8++2zb8z1Mly5dVPHixW1lBw0aZLbij2iUAiwaJSrXVePFGqJZ8UI8o7Rx+8aER6++m/+dWYui8ofSbZS+/fZbxzXOOeccYzUcnu99+vQxnoHHHnusrUzp0qXV9u3+Jn+lUQqwaJSoXNbi9YsTjhtKhHhGCbrtrdvEujr3vn+vWYOi8ofSbZSgevXqidcqVqyYLYbJSr9+/q88pVEKsGiUqFxWoivREiURozRq1iixrs7hbQ5XW3ZuMWtRVPCVCaO0YcMGVaFCBfF6Eg899JBZ01/RKAVYNEpULivR3EaJkohRQs6mMk+UEevrDJ6Smn2nKCoTyoRRgv799191yy23iNcMg9Glzp07+56ROywapQCLRonKVU1cNFE0J8mQiFGCmg1rJtbXufbVa80aFBV8ZcoohYVs23fffbcqVaqUcb1DDjnEiFl65JFHUn5tGqUAi0aJylU1GdpENCfJkKhRmrJkilhfp0DzAmrZhmVmLYoKtjJtlHTt2LHD/K/Ui0YpwKJRonJRbnb0d0OiRgmq1KuS2IZOn+/6mDUoKtjKNqOUTtEoBVg0SlQuatiMYaIpSRY3Rqnntz3FNnQq9qxo1qCoYItGKdJXGqUAiUaJykXd/ObNoilJFjdGafnG5apgi4JiOzrTl003a1FUcEWjFOkrjVKARKNE5ZrWb1uvirYqKhqSZHFjlKArXr5CbEen5fCWZg2KCq5olCJ9pVEKkGiUqFxT/3H9RTPiB26N0luT3hLb0Sn9RGkjrQBFBVk0SpG+0igloT179qjFixerqVOnGh+ahQsXqlWrVpln/ReNEpVruuj5i0Qz4gdujRISSiKxpNSWzhdzvjBrUVQwRaMU6SuNkgvNnj1bvfDCC6pWrVrqlFNOUYUKFbJdL0zJkiVVjRo1jHwPo0ePVjt37jRbSE40SlQuacGaBb5uWaLj1ihBd717l9iWzh3v3GHWoKhgikYp0lcapTjauHGj0fapp55qa9sNJUqUUA0aNFATJ040W/UmGiVqxbY56o8NY2xs27PBPJu/1OmLTqIJ8QsvRumrP74S29I5tPWhasP2/Pm+UOnRfrVPLdkyXY1fNVB9vayP+vTvduqrZb3VjytfUb+u+VAt3jJV7di72Sztv7LBKP3xxx+qbt26xsa3p512mmrWrJnatGmTeTZ1olFKUHgz2rRpo4488khbm8ly/fXXq0mTJplXcScaJeqd+Q+oRuPybPy56WfzbP7R/v371andQj9OBBPiF16M0t59e9XxnY4X29MZ+MtAsxZFJS788Bm5uItq8Uspx9+6zvMzrzZr+a9MG6XffvtNHXrooY7rIjv39u3bzVKpEY1SAho+fLgqW7asra1oYM+Z8K7G+P+CBQs6ykjce++9avNmd78GkjVKa3YsNH6VWPl62bPmWSoIyhWjNPbPsaL58BMvRglqPaK12J7O5S9dbtagEtX6nUsd31FfLO1pns3/wihRm0knOP7Go5GfjdJll10mXhf07JnazwSNUgwhRfpdd91la8NK4cKFjbgk/H+xYsWMvWekcjiOcgUKFIhaBpQvX1798ssv5tXjK1mjNG/jj44/tI5TTjfPUkFQrhilBz98UDQffuLVKM1YPkNsTwfxVX+v+9usRSWivzdPcny+2/56onk2f2vp1hmq6YTDHf2PhdUo7d2/2zBaVv7ZPt88616ZNEqI6y1SpIh4XQCjkkrRKEXR2rVr1SWXXGKrHyZseqIFb8cibJqiGSaYro8++si8i9iiUaJywSjt2L1DHdXuKNF8+IlXowRV7l1ZbFOnx9c9zBpUIspVo7R733bVacqZjr6Dh8YXUl2mVjRM0bO/1zS+sx/+uahxzmqUNu5a5aiL8l6VSaO0YsUK8ZphKleubJZMjWiUBC1dulRVqFDBVjcMjEyi02nxQDuS2cLxt99+27yb6KJRonLBKH007SPRdPhNMkbp2e+fFdvUOb3H6Ua8FZWYctUojV35uqPfTX4+1AiN2L5no1kqIoweLdoyRc3+92vzCI2Sn6JR0oSgbbzo1noA8UbxRpBgojB9dsEFF6iaNWuqqlWrGqkBpLJWpCk5/Hvw4MHmXcmiUaJywSjVer2WaDr8JhmjtGLjioS3NJm02NvijVxUrhqlrtPOtfW58bhD1Kx/vzLPJiYaJf9Eo2QREkZed911tjoApiXaVNmJJ56oOnbsqMaNGxc18n7ZsmXq3XffNfItRRuNkqbjEPeESP9oolGi8rtRWr15tSrUIvQDRTAcfpOMUYKufTX0ZSm0q9P0k6ZmDSqectEobdm91jBG1j57CdKmUfJPNEoWderUyVYeYDmiZJKQYBKxRHv37jVrJ6a//vpLNWzYUGwTxzC6ZD2GEap///3XrG0XjRKV341S3x/7imYjFSRrlAZPGSy2q1OyfUm1c48/SWfzu3LRKP2+frSjz98u72ueTVw0Sv6JRsnUnDlzxKh63dDg361atTJWxCWjn376SZ100km2toE04tSoUSOzll00SlR+N0pV+1QVzUYqSNYobdu1TR3Z9kixbZ0RM0eYtahYykWjNG7VG44+W2OPEhWNkn+iUQpp3759jhwNUtA2RpfimQ83wsq66tWr264BdHOG+5gxY4ZZKyIaJSo/G6XZq2aLJiNVJGuUoHvfv1dsW6feoHpmDSqWctEoIdu23me8Dm5Fo+SfaJRCGjlypK0c0KfAYJxGjRpl1vBPW7dudZglaQruqquuMmtElB+MEpbBLto8WU1e85GRSO7jhS3UewseUgPm3mH8/0cLmxtZaSet/kAt2TJN7dufvl3YkccE94T7eGl2HfXi7Fpq0LwGavSS7sYXF7YU8FvoH7YhGb6oY+haDdULs64zrovXY9SSJ41h+V37tpml/TdKq7f/qSaufld9triz+vCvR9XAefcY/Ueiv++W9zM+M6nYImXV9nlq/D+DQq/302rIwpbGNR8dc4Gq8kqeOrl36EdK29BnWjAciVCwZZ4q9WSeKt8nT1V5NU9VH5SnLnsn9GX3Qej/381TF4f+Xe31PDXo9w7GyiGsIPKq7+Z/J96DTpGWRdSaLavV3A0/GJ/vt+bfp/rNukH1n3OT+uCvpur7FS+rDbtWmK36K/QP7yM+T4P/fFi9MudmIwbm9bn11ft/PmK8zyu2zTZLZ1bZaJSQqPeHFf2N76o3590d+hu9Vr08+0b19vz71YhFTxijP9a/UbfC+6L3GVuXuBWNkn+iUQoJnbaWgymy/hu89tprZmn/hZElaRpOZ+rUqWaNAwqqUZq2dph6d0Fj1W3aeUZOEP0eYtHil2NCD5V7QyYmepB7LI1c3FU1m3i0jVn/fmmeVWrPvp3Gg6LD5NPE61vByhRr3WSEPZqGLWpv9E+6lpVHfj4s9AV9l/FQ98Mo4QsV5q/dr+UcbUkg0LT79KqGmYN59aqNu1YaD5tEr1tvdJ6q+lqeKtEx9PkWzIeVciFzBTN086g89cBYub1o4DMBQ4zX16327d+n/vNWCdXguzwbpzwTubdD2+SpiwbmqSbjiovXD9N4XIGQQa+t1u7wJ0nl8q2zjH49NrGEeD2ddpNPUeNWvZmUcUxW2WKUdu7dYizNj5bbSAd5jWD2kVk8EcFshb+PkAZAb++xCcUPnpfoMLm80c7kNR8fPCa9z/i+tdaLBn4Y6qJRilwv54wSVpVZy2A0RzdKN910k1k6dRo7dqw45Wb9d5MmTczSBxRUo9Tzt+qO67oFDxF8Ee3e5y5W7NO/H3e09du6z4xz+JJJ9KEdBqYBoyDJaPq64ar1pOPE9uMhZe5N1CjtD/0P+VoenXCkow034P38d+cys9X4ghmFKYThk9qLy0956rohB0aJrObISu1hQj2X4DOGUQK3owPNvr3U0RZGswo0z1PnhYzevd/bz8Wj6YQjjBFXr4LRwSjdQ+MLiu3HA8kNMYqSCWWDUZr97zfq8V9PctxHIsAwIeYonnrNuFisnyjNJ5Y02sFosHTeLX1+d263Q6MUuV7OGSUEZlvL6GYF+ZOQgDIdatCgge3aOiVKlFDbtkW+tHPZKIV5buaVoV97W82W40sySpNWv2+MUunH3ZDIl6Ek7PyNB7LUplcSMUowSZhmkep7AdOniWjz7jWq9wynkfACpswkkwT8MEphnvm9htq+N/EdygfNcb6ulV/JUzeOsB9zA0YCZqx3P/WP++476xqxTTe0/OVYYwuMdCvTRgl/125HvSUw+hpLNEqxRaOUJMkapUqVKtnK6LsTP/LII2bJ1OvPP/+MmmcpzBdffGGWzn9GqdnEo4wvDMz3D5h7u3p5Tl3jIdV56tkxfw3jgZ+oJKMUa2Tjf+MLG78m402JYVTGzagK9NOqAWJbYbAZJkwF4lYQQ9JjejVjdEEqayURozRqSTexLkzbU79dYMRHDV/UQX2+9CkjTgzvB6ZipDogEaOEaYj2k08V6wMM+SMma8Afd6mrPiisrhuap277Ui4LvBilht/nqbqf5alrP85TV36Yp64J/X+d4Xnqv5+H+j4+umHFFGeiQsyRo42ftH9bwKjD47+ebEyvSOfDNPm5mFqz4y/zKvGFDM7dplUR28JUzYd/PRZ6sL6nZq7/whg1wagVHuiYVpXq4B637ZFTlaRKmTRKXy7t5bg2wPvw6h/11HcrXlTT140wYgrx/9+veCl0/NaD24no/LrmQ7Nlp2iUYssPo4SM+MhpuG7dOvNI4sppo4QXXx9B0oOokTYgnbrhhhts19fvD7mewgq6UcIXHmKVEKi9fucS86wsxPCMXzVQHALHwz3RmCXJKOnAmGE6bfX2BWrf/kieLPw6n7JmiHFeqhfvV6NVCJbFF67eBvqCh3K04E2MBOHc50t6GA87vT6IZ5QQOC19mSNgPN6DGK8JcrrosRrxjBKmSKM9tJ+afr4RABsO1H/n13dspufIDnmq0st56vav7PUSMUp3fZOnaryXpyo8F2qnvVw2zLfzv1AT/nlHNISYYv1786/G/cWTaJQ0an2ap87ql6fO7HWibUuTTbv+UT+ufDXqjvH4EZGI8DlBfJNeHyNDeGDHW4gA89TqlzKO+m/MvdMskR5lyihhOl5P+gje/7OJ8R7FEn4w4ceNXhdGONqPKQTuY3oTfPRXM0ddmLLweYl1OxYZ7SCWKnxMeu2e/u0iW71oSAsJgmqUEF5Tr149ddhhhx0sf8YZZxhJoBNVThuloUOH2s7rJgmjTekW3jzrPehYV78F1ShhuunPTePjfllLQtbaTlPPctz3J3+3NUvEViyj9MSUM4xf1fHuCw996Rdg60nHGw+oeEL7CGTX6+OLFO9JokI7+AWrtxPPKA1Z2MpRByvc3Aj9xCgERrlQP55Riva6I1ZJf72v6n+VaGQQ41Ph+Tx1h2mYYhklmJDje4R+aITqSOclwukBtu5Z79hCAuABlohiGaXrh+apY7varzvur3FmzYgwGtTn9/+IbeBvJ55+/uctRz2Y23g/SKzCA1MfSYWRh1lOlzJhlDBq1vKX0rZrot8T/om//2ZY+ExjwYW1DYC/g3jCghO9npcYNa56U0ZSaGlxVhjEH+/cGT/5a04bJXTGel7fyw3xS+kWhgat96CPKGHvuLCCapSS1fyNPznuu8vUc8yzsSU9sDGth2mmPft3maXiCyNC0i9OLK+PJwRv6/UwxZdoELZVXla96aNB6AcMqBdhxA1LpWONROHXrjSCJZnb5RuXx90zrXDrA6NEsYySF6x5lKQHNFZCJiLJKGHl22nPytdt/FFjs6ZdSMOA6S69rXcXyAlow8J7ok9xYmrGzbRdWBh9srYDMGWXLmXCKGE0Wb8mpuHcCqPg+sggppfjLQ6gUXLKi1GaPn163FAW0K5dO7NGdOW0UcIqMut5nUR28E+FcJ/W+7CaJfz37t0HluvmqlHCaIb+AHl4fBHjeDxJRglLoL2o+/T/c7SFlXPxhOFvvR5GVrzIrVHCa6QvP0ZsWCo19O/WtusBTMNJxrTXmNDfrGAmJAq3ko97RU842XFKBds9Y1QhkTxeklGKZpJA8ceLq+275X0ipZEhvF9YORhN+AzqdZCXyYsk0xVeip4OpdsoYbRYX4GKz6p1Ct6NJNOFmKZYolFyyotR0s0Lnp2lS5c2FmhZj8NMzZ4dO29YThulG2+80XZed5/Y6DYT+r//+z/bfej888+BOfJcNUoQ/uD1e08kEaJklMLpAdwKyfr0tpCDKZaQy0avgwBtxBZ4kVujhC98fSQMI2r49ZsqSfE2U9YONc/aValXJdFMpAPdKPWbdb3jvuPFp0CSUUJ6AOmaYYZMH2LWtgsPbil9w8LNv5glnHp+5lW2sohLSiYXEqZlre0B5MBKh9JtlBCDqF8vkR8/0ST9vSOhZCzRKDnl1iht2bLFNuUGk9S4cWPDF/To0cORt7B79+5mTVk5bZTq1KljO6/HKE2enNiSZ791+eWX2+5DJxxgnotGCcPWiLOQjFI4oDGW/DRKSNKotxXvSxArY/Q6yNXjVV6m3lr8UspR56tlxh+270I8i34tPLil0aSpS6eKJiJdhI3Sgc/YUmMFnn7vq7bNNcrEkhejVGeAM8FfWFIc2tiVcgJcvK76IoHBf/7PPOtNCHC3tgd+X/+5eTa1SrdRQrC29VpYEYvdA7wKsUr6qlqs5o0lGiWn3Bql33//3Xb+5JNPthmbu+++23b+vvvuM2vKymmjdMstt9jO6+iZsNOlCy+80HYf+kjX/PnzjXL5zShhRAiBqngIIA4CK2yQAwaBz/hylFaJWUkkg7GfRkkyPWg/lrCsWK/j5UswLC9GCSun9DoYVcIUGYKI/RSmNfVrvTLnFvOsXc2HNRdNhJ8UaZ2nynQ/EOyNGCdsY3LDJ3nqllF5qvmE0nE/Yyu3/WHebXR5MUqFWhRSqzatMluwCyka9PYwminpr00THGW95vgKa9a/XznaxDL0dCjdRqnrtEq2a2FFZrLSk9j2mnGJeUYWjZJTbo0SnpHW80cddZRhXsLeoFatWrbzrVu3NmvKymmjdPvtt9vO64YEe8BlQuXLl7fdhx61v3LlgWHv/GCUsLIG+6lJq8Dckm6jhBw0elvxjJK09Pyf7QeMrxd5MUrT1n7qqBMGmb4xgoEVPkgjkEjcVyzB8OrXkDKZ79m3R5V5ooxoIpIFaQGQ8PHmkfb78EKqjBLoN1aetp269hNHe9ifTRJikfSy+NtCHi6vwCzobcabYvZL6TRKiPvSp6Ux+im9Jm7Qs+cjvUgs0Sg55dYo7d27Vx1//PG2MhUrVlSNGjUyVrrpz9T33nvPrCkrp41SvKzc/fql58vAqu3bt6siRYrY7sN6X1iZlx+CuTGFIY1sJEO6jRLq6W3FM0p6wkh8MXsNFIW8GCVMB0hTlxLYLwrZz9EvPLDdJtXEpqF6m8iErmv07NGieUgG7Al39Ueha8ZI9uiWVBqlas9WM1uwa/7GsY72npt5hXnWLmlD1VSAaed0KJ1GCXFX+rVSQbz7p1Fyykswd4cOHcSyOjBUO3bE3gorp43SW2+9ZTuvc+utt5ol06fx48fb7kF3vqefHjEyQTVKGLaPN8UhgTxDWIGDzNH4paefT7dRmrFupKOtWEYJv1j18jBOyciLUYK27F53MAeSWzA98fWyPgllacaO+Hr939ePNs9GVP/t+qJ58Mppz+Wp+360XzcR8BnDqB8+Y1LCRa9G6bRnQz92hPvUmbliptlKRNg6RG8P750kKVlhKkBm93QonUYJKT/0a6WCNpPKmleURaPklBejhPxIVatWFcuHwcDDZ5/F//7PaaP066+/2s7rU29HH3202rMn/nJgP/XEE0/Y7kG/J2QYDSuIRgkmSco/FAbJJN+af58R/4O9rZZunWGsNNKXZUuZb7PdKElfXFiKnIy8GiUIxg0Pda+b4iIoHFnVY0na123uBvvqsk07NqlirYuJxsELWIr/YIxRpNu+yFOXD85TlV7KU+V6hb4XuuSpYo/nqe8WfGve0QFh2xa9rlejdN07p4v3qtNulDOnC/4G9PaiGSVsPaOXhRm37gzvBzDK6VA6jZIU34W0I1L/kyFezjcaJae8GCVo7dq1jkVbYcqUKaOGDRtmloytnDZK2GDWmtZcAtm70yXMq5544onifYR56aWXzNLBM0pIeKfn8AkzaF4DV5tuBtEoYQRGL48vzmSUjFEKC0H0SBqJZeV4MOjtxQMxZtH04uxajvL65q5vTHxDNA1eOKJ9nrrvB/v1wlzxfp469km5HtDTA/hplJ4a94B4TZ2yncuqvfvsU7FSgtUXZl1rnrVL2ugYCU6DqnQapWVbf3dcCysf0y0aJae8GiUIWwSNHTtWPfbYY+q2225TDRs2VK+//rrasCF+OpmwctooQZhes5bR45Tw4UiXkG7dem2MJun388cfkS/qoBkljBTp10Og47S1ibl6q4JolKQcRjAmycgPo2QVRpn+2jTR2M8Ne7/h8xBrBBDg/Jx/7aMxYQ2cd4+j/C+rB5tnD6jGizVE0+CFy96xXwtgCi6RGKFUGqUflg1URVsVFa+rM2aePSGh9DmLtufaZ4s7O8omu+otk0qnUdqwa7njWtFG7lIpGiWnkjFKfijnjZJuTvRcSuDjj70nHEtUCCY75ZRTbNfV76VKlSpm6QMKklHC1Jk0xYOVY14URKMESbv/e90+BPLbKEnCSBgSRL41/17D2OrXA9j7TtJHC5s7ylpzTS1ev1gd0jyx+J14YF83bBWiX+/MF+TyOqk0SkhaeMvAW8Tr6jQc3NBs6YCQ40pvD6kcJGE1ml4W5imoSqdRQr4k/VqIU0t25adbpdIoYf9Ar6JRilwv54wSMngeeeSRtnI6iIpfv369WSM1Qh4H6zVhkvTRpOeff94sfUBBMkrLt850XAvxOfqGqIkqqEZJz9MCEtnkNJrSYZSswq/ul2bXcVwTo0pS1mrseq6Xte6A3+2rbqJZ8AJWuenXgnFKdGPcVBul4b8PF6+rc3ibw9WWnZFM7dJ9RBuFxfYYetl4eXuyWek0ShC2Z9Gvh+za6VQqjdLTv11onnUvGqXI9XLOKEF6ADUMim5SkC17167EN011I8RB6deTAss3bdpk1jigIBklKWkdtojwqqAaJcRi6XW+Xvaseda90m2UIGSulrJ7z93wvVkiIkzj6eWQciC8MeiZT50pmgUvHN/Dfh1Qe5hcViLVRmnX3l2qVIdS4rV13pt8YKQVW5hgQ1trWzClm3evMc7rwuuqx5k9NL5QqPxqs0SwlG6j9M6CBx3XixWDlwr5ZZTwnuvtYN86r6JRilwvJ40SRouKFy9uKytRv359380Sklrqm/Tppgl07drVrBFRkIyStGN+vFT+sRRUo4TYH73OM7/XMM+6VyaMEiTtgyYFDSMuq8UvxzjKYvXjxEUTRZPglZN62a8BkHVbKiuRaqMENRnaRLy2zjWvXGOUl3bv7z69qnEumvB50usMWdjSPBsspdsoIceXfr2Wv5T2vBejF/lllGCy9XaemHKGeda9aJQi18tJowQ9+eSTtrJAMiw1a9b0bRrutddec+RJwpSbPpqEDfy2bt1q1oooSEZJSpqXzK8bfeNPEASjhGzXeh2MECzZMs0s4U6vz63vaC+WUdq+d5Oxj1myQjCx87ryFKIUp9Rh8mmqySeNRZOQEM0PTLVZj5XuZr8GQCoAa5lY6Ebppdm1He0la5QSNYcFmhdQC9fPd+zcD37+5y2jrWjCFkB6Haw2RZoBP5RMTJ1bpdso4e9DiqX0y2giVjPe5t1+GSXo4Z+L2trB58DrBsk0SpHr5axRwkiRvmu/ZJQAYpaGDJF3+05ES5cuVXXr1nW0i+tJ1xwxYoRZ064gGSVsWKtfCwYBxsGNEAeDkSi9LRAEowT1/K26ox6CLN18geHLVsp6DWIZpRXb5hgPAmx14TU+DOo05UzbNRuPKxB1Z31k85bSDlz9waGG4ZGMQiwOezxPXTf0wF5t1uPIhSRl4S7Z2V4uGmGjhGktaSNakKxRghKZbkRcVaux/+dop82kE8QNha3auXeraj3peEddGAxsKO1VCGqGCcPeZelSuo0S9MnfbRzXBNE2Ik5USGiJ7WCwhVAs+WmUnpxW2dHWzPVfmGfdiUYpcr2cNUrQ3LlzxbxK0QwTPjiIL0o0KeW8efOMXA76VBvANZAlVD/epEkTs7ZTQTJKkP5wBUhIGI5XiSUMIyOWR4/XsBIUo4QRAb0ewHJ8PORiCcv3kYxTyhodJp5RCpfDlza2JXG7hcpPqwbYrgeibakRFnaw1+uAGu/lqUItQ59XwSzooFyVV/PUvWaeJN0ogXqjnNe4aWSeKtzKWVYHCSfHLH9BnCoM49UoIfYFwbVQvAD2Q9vmqauw9YrWBsAefIlI2ocQIKO92wcljBmu22VqRaMNvD7pUiaMEn6ESEYTfPjXo8bqODdasmW6MQKLWDG0kU6jJE3Nd5/+f8b3iFvRKEWul9NGCRo8eHBUYxQN7EyMfEx9+/Y1Yo4mT56spk6dqiZMmKAGDRpk7ClXqVIlsW4sqlevHnMPmlQYJSxff/2P23zD+usX2Xz164GOUyqo8asGhh4kBzb7DQumAdM5GPbGL2mprpWgGCWM5EgbjQJMtcAQwtCg/zAxWGmGPEX4kk7kdUjUKIXBSp/Pl/QIPZR+jWmasIHxB381NUYCrfXxb6y2iiU8fB7/9WRbvTB3fJWnznrhwIiQbhoKNM9TpZ/MUxe+mafuGWOvJxmlii/Zy4S5Hdfol6cOb2cvD/NVplueuijUVrMJzm1xdLwaJfC/8YWNFX8j/uqlSnUN/TCyGMQirfPUcd0P9LPh9866AEbajaKNOALEMWGUK1qQN2JyEHP27oJGxupUa91MGyVsfyR913hFij/CwgS8X/q1AWKWsIULVvJKo7IYecNUOv6mnv7tIkf9dBql39d/7mgLIJ/Sos2TbfeP/8bnG98/UvoJGqXI9XLeKEGvvPKKaJbcGqhEQEySlLvprLPOUuvWrTPvSFYqjJLfWH99YVRIWn5rBdNCeKBK+YasSHvFBcUoQYu2TPGUBVtH+jJ3a5SsYMSu94zLjAfI4D8fNh62iAfDSKNUHnz412Nm67GFB0usEUFsO1I/ZGhuHJ6nan2ap+qNzlP3x9ivTTJKBVrkqf9+IZcPgxGpO76OjExFQ/qMJWOUJNDn+8fK56wggHv7no3mFRITRg2QWVpqzwr+3rBsHDvdY6oGo5W6GbaSaaPkN1v3yDGnSIwaHgWKRrOJR6mu0841jAfSMGCfwGi7D4RJp1GC+UEAt95eGORFe/zXk4wfaNbPe5/fLzdbiIhGKXI9GiVTqB/LGCVrmlA/WhtILLlypX10RVLQjBKEBzW+XKSyiYCl5fgCC+qqN6umrxsR94s4Gg+NL2h8oSIJpH4uGaPklvcWPGT7VRpP2Mbm0XHxR8USQTJKoHhH5+iTG7AxLqau/Fz1lgzP/n6FEWTsRYh7w7YmsYyPW3LFKEFIayJtwJ0M6TRKEF7DaKNj0aBRsotGKYawYV68tAFuDFMscxTm+uuvVxs3JvbLMYhGCcKwNAJCpfLRwBc9TEF4ei4/GCUIiQNjxcRI4Bcs9v+C3KYHwFQoYoykxJduwPQDDKuXrMUXv3CBqh4yOdH2ZIvH3d/mqf97PU8Vaxv6nAtGCSCAu/6Xcv1o4DP25ry7jKlOyE+jhBV0eM3047HA1iuIyRo9Z6TZsndh6harTKXrJApGH7DpLlawpkuZNkoQFilgCtLrj5owWMQxduXrasfezWbLsvw2StCsf7909QM124zS6tWrxWuGwUKsVIpGKY4QgO0lvsgtSBOA+923L/Ff58kaJXwJYSoslWC6TRK+nDAPLk1vWMFUnLRhLkYy9GthdVU8fbWst6NevPiaaPpjw3eOttC+W+GL+O3590fdHiQM9p1CUK11BOfTv9s57iHRzYVhWIcv6mCYJoxQSde0gpVtmKL5ceWrrqeBwlqwZsHBLUsQk1RtQJ66eeSBKSjpmmGQYRub2pbrnacKtgh9vjVjJIG4nwveOGA4pDbD4PwVH+SpT+a8Yt7lAWFKUX9tMSIWT5JRMhJO7ttmxOJhKjPWL/zbQgbvgjcj8VR3vOMuNimaYGrxWcdnDekZpGvrIKgZf38YBYm30CAVQkoD/T3wm3jL9cNCWg1sv4OpaX3ZvQS+27Ca9ZtlzyX0uQkL29Do9/j7+tHmWe/CD4CPF7aI+cMM3wMI2rduMxRWJo0SdOyxx4rXBQ0aNDBLpUY0Sglo9+7dasCAATHfqGRAbqZZs9ynyU/WKGWD8OsKU1DYjwrmB7/cELyNLwv8cvWyOiOowoMUI0xfLH3aeEjj9cCvSzxc1+1cbJZKjfAQ/GvThJARe8fYdgTBqiMWPWEE4I9b9aYxghXvl3Ai6vRFJ4ehAYVDpgaZtU97Nk+d8+KBkRQEX5/6TJ4q8USojIc0AmGw4u3kkMGq9vqBTXNrvJtnjGhVevnANQuaQdV6HiWvimaUrMLI3vsz+hnG7/Tn81SFECc8laeKd3De/6GtD1Ubtie+03mi2rBrhbECDiOD+HsbvaS78VDH5w0jEPriCioijJTj7wV7ICJtAP5mkcEbPyLwXiMeDzmTslEwzNiWZcb6UcYPL7z/mGLE6rxYZjjTRknf5isMZmm+++47s1RqRKPkQgiufvzxx1Xp0qVt7XoFL/aYMd5GM6D8YJSo3NH+/fvVqd1OdRiBbCGdRgnas2+PKvNEGfFedAb+MtCsRVGZUaaN0vbt29WNN95ouyZS6vTu7X4U361olDwIySlhQpA0EqkBrNeIBZwvpvE6d+5s5GxKVjRKVJA09s+xognIFtJtlKBmw5qJ96Jz+UvOmBGKSqcybZTC+vbbb1X37t1Vv3791Jw5c8yjqRWNUpLCr2S8WQMHDjQM0COPPKJuv/12Vbt2beP/8e8+ffqoUaNGGQFpfopGiQqSHvzwQdEEZAuZMEpTlkwR70UHcV1/r4u/WIGiUqVsMUqZEI1SgEWjRAVFO3bvUEe1O0o0AdlCJowSVKlXJfF+dHp83cOsQVHpF41SpK80SgESjRIVFH007SPx4Z9NZMoo9fy2p3g/Oqf3ON0YwaaoTIhGKdJXGqUAiUaJCopqvV5LfPhnE5kySss3LlcFWxQU70ln0uJJZi2KSq9olCJ9pVEKkGiUqCBo9ebVqlCLQuKDP5vIlFGCrux/pXhPOk0/aWrWoKj0ikYp0lcapQCJRokKgvr+2Fd86GcbmTRKb096W7wnnZLtS6qde3IntxiVPaJRivSVRilAolGigqCqfaqKD/1sI5NGaeuureqItqHvMuG+dEbMHGHWoqj0iUYp0lcapQCJRonKds1eNVt82GcjfhmlPzeNN7aysbJqW/y8aXe/d7d4Xzr1BtUza1BU+kSjFOkrjVKARKNEZbvajmwrPuyzEb+Mkld9Pfdr8b50irQsotZtXWfWoqj0iEYp0lcapQCJRonKZu3bv0+d2OVE8WGfjWTaKOH1Ktu5rHhvOq+Of9WsRVHpEY1SpK80SgESjRKVzfpm7jfiQz5bybRRglqPaC3em87FfS82a1BUekSjFOkrjVKARKNEZbPuee8e8SGfrWSDUZq1cpZ4bxLzVs8za1FU6kWjFOkrjVKARKNEZavcrOLKFrLBKEFVnqki3p9Oly+7mDUoKvWiUYr0lUYpQKJRorJV7/z6jvhwz2ayxSg998Nz4v3plHuyHLc0odImGqVIX2mUAiQaJSpbdVX/q8SHezaTLUbpn83/JJzJfNxf48xaFJVa0ShF+kqjFCDRKFHZqOUu9i7LJrLFKEHXvXqdeI86jT9qbNagqNSKRinSVxqlAIlGicpG9RoT+rsTHurZzhlPnaG+nPOl2YvM6v0p74v3qFP88eJq++7tZi2KSp1olCJ9pVEKkGiUqGxUpV6VxId6UKgzoI5atH6R2ZvMaNuuberItkeK96czZPoQsxZFpU40SpG+0igFSDRKVLZp6tKp4sM8aBRrXUx1/bKr2rF7h9mz9Ou+D+4T700Hxo6iUi0apUhfaZQCJBolKtvUfFhz8WEeVE7qcpJ6d/K7Zu/Sq+/nfy/ekw4Cv1dtWmXWoqjUiEYp0lcapQCJRonKJu3Zt0eVeaKM+DAPOljFN2fVHLOn6RG2NIFRk+5Hp9/YfmYtikqNaJQifaVRCpBolKhs0ujZo8WHeH6hcMvCqtmwZmrzzs1mj1OvDqM7iPeiU+3ZamYNikqNaJQifaVRCpBolKhsUv2364sP8fzGCZ1PMKbj0pHs8Y9//hDvQWLmiplmLYryXzRKkb7SKAVINEpUtmjTjk1GALT0AM+v/OfF/6jfV/xuvgKp0/nPnS9eX6fdqHZmDYryXzRKkb7SKAVINEpUtuiNiW+ID+/8DgKpH/r4IbV261rzlfBfL459Uby2TtnOZdXefXvNWhTlr2iUIn2lUQqQaJSobFGNF2uID+9coWT7kkZAdSqMypota4z4KOm6OmPmjTFrUZS/olGK9JVGKUCiUaKyQYvXL1aHND9EfHDnGgiqnrhoovnK+CfkSpKup9NwcEOzBkX5KxqlSF9plAIkGiUqG9T96+7iQztIYArtlCdPEc+5pUDzAqrRR42MkSC/NPS3oeK1dI5oe4TaumurWYui/BONUqSvNEoBEo0SlQ0686kzxYd2ULj8pcuNFWPIA4XpsxLtSojl3HJUu6OM9tBuskKGcLQnXUfnvcnvmbUoyj/RKEX6SqMUINEoUZkWppmkh3UQQPCztMx/3dZ1Rr4kjAxJ9dxy1tNnqW/nfWu27l2NP2ostq9zzSvXmDUoyj/RKEX6SqMUINEoUZlWk6FNxId1NpNo4sgpS6ao6n2ri214AXFGS/5dYrbuXuP+Gie2qwODt2zDMrMWRfkjGqVIX2mUAiQaJSqT2rV3lzqmwzHiwzpbufqVq9Xcf+aaPYgvjDZh1Kn0E6XF9txyWJvDjM12d+7ZaV4hceFeyncrL7ar88x3xhc1RfkmGqVIX2mUAiQaJSqTGjZjmPiQzkYqdK+gPp/9uXnn7rVh+wZjFApB31L7bjm9x+nqizlfmK0nri5fdhHb0zmn5zlmDYryRzRKkb7SKAVINEpUJnXzmzeLD+lsIpkRHEkYjbr21dCXonAtL2A6buG6hWbr8fXn2j8TTsUwfdl0sxZFJS8apUhfaZQCJBolKlNav229KtqqqPiAzhaSjQmKpVGzRqlyT5YTr+uWIi2LGKNVW3ZuMVuPrYv7hh5YQjs6LYe3NGtQVPKiUYr0lUYpQKJRojKl/uP6iw/nbKDKM1WMwOdUa9uubcZo1aGtDxXvwy0ndjnRiIeKp1fHvyrW10FclR+pCSgKolGK9JVGKUCiUaIypYuev0h8OGeSo9sfnbJtRGIJ02GJZs5OhCtevkLNXjXbbN0pN6N5XuKgKEoSjVKkrzRKARKNEpUJLVizIKu2LMFy+AaDG6jVm1ebd5gZYZ+1s58+W7xHt4RTGGzascls3a5bBt4i1tO54507zBoUlZxolCJ9pVEKkGiUqEzoic+fEB/KmeD8585Xvyz6xbyzzGv33t3GqNaRbY8U79ctx3c6XkyKOfz34WJ5HUwLYsUeRSUrGqVIX2mUAiQaJSrdwgP71G6nig/ldHJcp+PUgAkD1L79+8w7yy6t2LjCGOXya+TtgucuUL8u/tVs/UAOq1IdSolldQb+MtCsRVHeRaMU6SuNUoBEo0SlWz/++aP4ME4X8aaksk1j/xyrKveuLPbFLeEpxvBmu48MfUQsp4O97CgqWdEoRfpKoxQg0ShR6dYDHz4gPozTwZX9r4wZ5JytwqgXps8SHQGKR8n2JY3pvZ8X/iye18Go1t/r/jbvhqK8iUYp0lcapQCJRolKp7bv3q6KP15cfBinklOePMWIyQm6MBLU6KNGvm22W+3ZaqpY62LiOZ0eX/cw74KivIlGKdJXGqUAiUaJSqc+nPqh+BBOFTAB7Ua1SzgRY1A0bdk0dckLl4h9ThXYMkUPCKcoN6JRivSVRilAolGi0qkbXr9BfAinAuQlys/TReHNdss8UUbsfyqYtHiSeXWKci8apUhfaZQCJBolKl1CjiK/NoSNxRlPnaG+nPOledX8r627thrZvbGNifR6+EnTT5qaV6Uo96JRivSVRilAolGi0qXnf3hefPj6xeFtDvd189qgaf7q+er6164XXxu/QBB4rr6+VPKiUYr0lUYpQKJRotKl8545T3z4JgtWZGHJ+6pNq8wr5baw2S6C16XXyg9GzBxhXomi3IlGKdJXGqUAiUaJSoewJF966CZL1T5VjSXulF3bd2/3dbNdK/UG1TOvQlHuRKMU6SuNUoBEo0SlQ21HthUful4J5wFK9+a1QdOyDcuM0TbpNfQKYqHWbl1rXoGiEheNUqSvNEoBEo0SlWohWeKJXU4UH7puCWeW5oPanb6f/72q2LOi+Jp64dXxr5otU1TiolGK9JVGKUCiUaJSrW/mfiM+bN3ynxf/o2Ysn2G2SrlVeLNdPxJ+Xtz3YrNVikpcNEqRvtIoBUg0SlSqdc9794gP20Q5ofMJ4u73lDet3LTSl812562eZ7ZIUYmJRinSVxqlAIlGiUqlkOPniLahvy/hQRuP8Oa1m3duNluj/NTkJZPVRc9fJL72idD5i85mSxSVmGiUIn2lUQqQaJSoVOqdX98RH7LxuPqVq9WcVXPMVqhUKbzZ7rEdjxXfh1iUe7IcR/koV6JRivSVRilAolGiUqmr+l8lPmSjcVr309TQ34aatal06d9t/xqjdwVbFBTfl2j89NdPZgsUFV80SpG+0igFSDRKVKq0fOPyhB+8h7U5zMj7s2P3DrM2lQn9tvw3VePFGuJ7JNHoo0ZmTYqKLxqlSF9plAIkGiUqVeo1JvS3IzxcdbB57eL1i81aVDYI2b1P7nqy+H5ZwQq67bu3m7UoKrZolCJ9pVEKkGiUqFSpUq9K4sM1zJlPnam+nvu1WZrKNoU32y3aqqj4/oX5ePrHZg2Kii0apUhfaZQCJBolKhWaunSq+FAFR7U7SvUe01vt2rvLLE1lsxasWaBqvV5LfC9B7QG1zZIUFVs0SpG+0igFSDRKVCrUfFhzxwM1vHntP5v/MUtRQRKm48p3K+94Xwu1KMQNiamERKMU6SuNUoBEo0T5rT379qgyT5SxPUyrPVtNTVw00SxBBVUYBUR2bz03Fo5RVDzRKEX6SqMUINEoUX5r9OzRBx+gx3Q4xniIIl8PlX+0fONy22a7MMIUFU80SpG+0igFSDRKlN+q/3Z9YzoGeXk2bt9oHqXyo37880d1bu9zDbM0c8VM8yhFyaJRivSVRilAolGi/NSmHZvUDa/fwIdmDglTrRg17PltT/MIRcmiUYr0lUYpQKJRovzUzj07zf+ick1876l4olGK9JVGKUCiUaIoiqLSIRqlSF9plAIkGiWKoigqHaJRivSVRilAolGiKIqi0iEapUhfaZQCJBoliqIoKh2iUYr0lUYpQKJRoiiKotIhGqVIX2mUAiQaJYqiKCodolGK9JVGKUCiUaIoiqLSIRqlSF9plAIkGiWKoigqHaJRivQ1cEbpyCOPtN1gnz59Dt587969bedKliwZqpJ/RKNEURRFpUO5bJReeuklW1/jGSX4kJBEz+IG8aAXypQpY7vBp59++uDNY3SpQIECB88deuihoSr5RzRKFEVRVDqUy0ZJH3S57rrrbEapZs2atvOvvPIKqomexQ3iQS9UqFDBdoNdunSxdQDmyHp+9+7doWr5QzRKFEVRVDqUy0apY8eOtr7edNNNNp9RvXp12/nBgwejmuhZ3CAe9ELVqlVtN9iuXTtbB0qUKGE7v2bNmlC1/CEaJYqiKCodymWj1KRJE1tf69evb/MZ5513nu38yJEjUU30LG4QD3rh8ssvt93go48+autAuXLlbOcnTpwYqpY/RKNEURRFpUO5bJSuueYaW18feughm88444wzbOd//PFHVBM9ixvEg1647777bDd4++232zpw/vnn286//fbboWr5QzRKFEVRVDqUy0bppJNOsvW1U6dONp9x1FFH2c4vWbIE1UTP4gbxoBf0FAB6NHqtWrVs51u0aBGqlj9Eo0RRFEWlQ7lqlNavX68OOeSQg/0sUqSIIw2R9fxhhx2m9u3bh6qiZ3GDeNALI0aMOHiDoFKlSjajhCEy6/kqVaqEquUP0ShRFEVR6VCuGqVhw4bZ+nnqqafaPEbLli1t5xGvFJLoV9wiHvTCvHnzbDeJvEq62ytUqNDB80gXsHbt2lDV4ItGiaIoikqHctUoNW3a1NZP5EyyGqV69erZzt95552oJvoVt4gHvbB//36l51Jq27atrSPly5e3nX/zzTdDVYMvGiWKoigqHcpFo4QpND0+CcbJ6i8qV65sO//aa6+hquhX3CIe9AoCuK03evPNN9s6cuONN9rO16hRI1Qt+KJRoiiKotKhXDRK3333na2Phx9+uLE9SdhbYPYKMUnWMvPnz0dV0au4RTzolQEDBthu9KyzzrIZJSShtGboRuAVpuyCLholiqIoKh3KRaN099132/p46aWX2rzFY489Zjt/4oknoproU7wgHvTK33//bYs6hynq2rWrrUMwT9YOPfDAA6GqwRaNEkVRFJUO5ZpRWrhwoS2+GTRr1szmKy655BLb+QcffBBVRZ/iBfFgMsDpWW8Y023WDqED1vOFCxcO5zoIrGiUKIqiqHQo14ySvmL+5JNPtnkKTMHp027ff/89qooexQviwWR4/fXXbTd8/PHH21a/4b9POOEEWxkzOj2wolGiKIqi0qFcMkozZ850jCbdf//9NqPUsGFD23kEffuVPymMeDAZNmzY4NgAt1GjRjE7BhCsFVTRKFEURVHpUK4YJaykx4Iva98wyGIdeAH6arj27dujuuhPvCIeTBY4PuuNn3LKKbaOoaNIFmUtU6FCBbVp06ZQ9eApnlFq3bq1Gjp0KCGEEJIU+n5mOvnFKPXv39/WL8Q/P/zwwzYvoU/LYfQJMU0hid7EK+LBZMGyvIIFC9o6oHewTZs2jjJ33HFHqHrwFM8oEUIIIekgPxil6dOnO2amqlatavMQQB9wwWxVSKIvSQbxoB/oOZUQq9SnTx9bJ6+88kpbGfDCCy+EqgdLNEqEEELSCYxD9erVHYHMQTdKa9asUaeddpqtT8ibhPRCVv9wzz332Mpglf3cuXPRhOhJkkE86AcIwtJHjOrWrWvrKKLVMS1nLYPOfvzxx6EmgiMaJUIIIemkefPmxnNUXxwVZKO0ZcsWdcEFF9j6gyk3Pc75qaeeUsWLF7eVM2ekRD+SLOJBv3j00UdtHSlatKjq1KmTrcP4t+6IsSvwyJEjQ00EQzRKhBBC0slVV12l/vvf/6oSJUrYjgfVKMEkoU/WvoArrrjC5hnAZZddZitzxBFHqKVLl6IZ0Yski3jQLxCcjSk3a4fKlStnSz0OkDwK5shaDqNRyPQdBNEoEUIIyQaCaJTWrVsnruarWLGiI2QHuRitia0ByoQk+hA/EA/6yeDBg20dAohNsnYcIEO3dXsTgBcDQd+7d+8ONZW9olEihBCSDQTNKE2ZMsURlA0Qp9S7d2+bT5BmoGCmTI8gehA/EA/6Tf369W0dgwG67777bC8AQMS6nlwKwGlie5RsFY0SIYSQbCAoRglJIfv162eE5Oh9QLogxCFZ/UGvXr2MrNzWclgZN2PGDDQneg+/EA/6Dabg0HFrB7F1SdOmTW0vBEAaAemFg4t8+umn1a5du0JNZpeGDx+u2rVrRwghhGSUtWvXmk+m7NVvv/0WNXFmpUqVDFNk9QWYWsNxvawZniP6Dj8RD6YCKS9CsWLFjGSM1hcE4Nixxx5rKxsGhmvQoEFZaZgoiqIoipKF5fuYOdJXxAPMNF199dWOmCQkqNZXwoG77roLTYp+w2/Eg6kCW3noLxDyI+g7AQOMHiFPhLWsFQzB9ejRQy1evDjUNEVRFEVR2SbED40aNUrdcsstjjjkMFi1hizbug+AaZJMEjbf3759O5oXvYbfiAdTyWuvveboNKbaGjdu7HiRANynvvzRCl54LBXs1q2bGj9+PEeaKIqiKCqDWrZsmXrvvfeMWORos0MAo0gwQk8++aTj2Y/pt7PPPttRB8Hb69evx2VEj5EKxIOppnv37o7OY6QJjlN/sQBGl5BLQU8hIIFg8NNPP13deOONhkNt27atwvUQPU8IIYQQ/+jQoYNCzsR7773XyBR+9NFHi89mHWxmK8Upg44dOzo2uwVILwQTpnuKVCMeTAfPP/+8IxcCOPfcc40pNenFg+tEQio91okQQggh2Q9SAeiZtq1gFArxy3o9BHNnwiQB8WC6QI4lrH7TX5CSJUtGnYoDPXv2VHfeeaexi3K0OU9CCCGEZB5sN1KzZk1x8VYYDJBgJZw0gILwmn///TdkG2QvkWrEg+lkzJgxqnTp0o4XBlSuXFl17txZfFHDYJSpQYMGxgtcpkwZMZqeEEIIIekBi7TOPPNMVbt2bWNPOn0lmxWsasM+bQjoltpCnHI6A7clxIPpZsWKFeryyy93vEAAcUlwol27dhVfZB28Ie3btzcyfWP54K233mq8WYQQQgjxF2x2f9tttxkDFo899pgREyw9m3VgkO6//34xFgkgdyJSAel+IROIBzPB3r17DTMULWAbQdpYEogtTaQXnRBCCCHZDVazIXRG3wfWynnnnadmzZoVsgayX0g34sFMgoRU2AtOevHClC1bVt10001xp+UIIYQQklmwET62+kIqAGnnjTBIBYRtTTBwonuDTCIezAY+/PBDY1M86cW0gvimSy65xBj2QyoAvCHSG0UIIYSQ1IPYYSz9r1OnjjrrrLPipvbBjBFWu61cuTL0+Jc9QSYRD2YLe/bsUVgZd8455zhe2GhgFVypUqWMXEpINXD++ecbU3bIw0QIIYQQf0D8MHInYaoMySGR50jf3T8WGF1CvsOFCxeGHvmyD8gGxIPZBnYZRgp0BGbHGrYjhBBCSHaD1D4I+l6+fHnoES8/97MJ8WA2g1wK2Abl+uuvN5YgSm8CIYQQQrIHpAvAqriJEyeGHuXy8z1bEQ8GBWy2N27cOGM+FNufYOgvkW1OCCGEEJIasL9bjRo1jMTR7777bmBGjqIhHgwyiGtasGCB4Vq/+eYbNXToUPXmm2+qAQMGEEIIIcRH3n//fTVy5Ej1ww8/qOnTp6d9w9p0IB4khBBCCCE0SoQQQgghUREPEkIIIYQQGiVCCCGEkKiIBwkhhBBCCI0SIYQQQkhUxIOEEEIIIYRGiRBCCCEkKuJBQgghhBBCo0QIIYQQEhXxICGEEEIIoVEihBBCCImKeJAQQgghhNAoEUIIIYREQeX9P6dj4eCMp5b5AAAAAElFTkSuQmCC;" vertex="1" parent="1">
          <mxGeometry x="277.8" y="100" width="203.15" height="130" as="geometry" />
        </mxCell>
        <mxCell id="WWBzB1PbY3KmT62K1JIV-2" style="rounded=0;orthogonalLoop=1;jettySize=auto;html=1;entryX=1;entryY=0.585;entryDx=0;entryDy=0;entryPerimeter=0;" edge="1" parent="1" source="WWBzB1PbY3KmT62K1JIV-3" target="WWBzB1PbY3KmT62K1JIV-1">
          <mxGeometry relative="1" as="geometry">
            <mxPoint x="230" y="194.40480000000002" as="sourcePoint" />
            <mxPoint x="290" y="171.01199999999994" as="targetPoint" />
          </mxGeometry>
        </mxCell>
        <mxCell id="WWBzB1PbY3KmT62K1JIV-3" value="Device Head" style="rounded=1;whiteSpace=wrap;html=1;fontSize=18;fontStyle=1;fillColor=none;strokeColor=none;" vertex="1" parent="1">
          <mxGeometry x="520" y="130" width="120" height="20" as="geometry" />
        </mxCell>
        <mxCell id="WWBzB1PbY3KmT62K1JIV-4" style="rounded=0;orthogonalLoop=1;jettySize=auto;html=1;exitX=0.224;exitY=-0.125;exitDx=0;exitDy=0;exitPerimeter=0;" edge="1" parent="1" source="WWBzB1PbY3KmT62K1JIV-5" target="WWBzB1PbY3KmT62K1JIV-9">
          <mxGeometry relative="1" as="geometry" />
        </mxCell>
        <mxCell id="WWBzB1PbY3KmT62K1JIV-5" value="UI&lt;font color=&quot;#cc0000&quot;&gt;Interface&lt;/font&gt;Orientation&lt;br&gt;&lt;span style=&quot;font-weight: 400;&quot;&gt;表示内容がデバイス・ヘッドに対して左を向いている。&lt;/span&gt;" style="rounded=1;whiteSpace=wrap;html=1;fontSize=18;fontStyle=1;fillColor=none;strokeColor=none;align=left;" vertex="1" parent="1">
          <mxGeometry x="200" y="280" width="310" height="70" as="geometry" />
        </mxCell>
        <mxCell id="WWBzB1PbY3KmT62K1JIV-6" style="rounded=0;orthogonalLoop=1;jettySize=auto;html=1;entryX=1;entryY=0.5;entryDx=0;entryDy=0;exitX=0.106;exitY=1;exitDx=0;exitDy=0;exitPerimeter=0;" edge="1" parent="1" source="WWBzB1PbY3KmT62K1JIV-7" target="WWBzB1PbY3KmT62K1JIV-8">
          <mxGeometry relative="1" as="geometry" />
        </mxCell>
        <mxCell id="WWBzB1PbY3KmT62K1JIV-7" value="UI&lt;font color=&quot;#cc0000&quot;&gt;Device&lt;/font&gt;Orientation&lt;br&gt;&lt;span style=&quot;font-weight: normal;&quot;&gt;デバイスのヘッドが右を向いている&lt;/span&gt;" style="rounded=1;whiteSpace=wrap;html=1;fontSize=18;fontStyle=1;fillColor=none;strokeColor=none;align=left;" vertex="1" parent="1">
          <mxGeometry x="480.95" y="10" width="330" height="50" as="geometry" />
        </mxCell>
        <mxCell id="WWBzB1PbY3KmT62K1JIV-8" value="" style="rounded=1;whiteSpace=wrap;html=1;fillColor=none;strokeColor=none;" vertex="1" parent="1">
          <mxGeometry x="414" y="80" width="40" height="40" as="geometry" />
        </mxCell>
        <mxCell id="WWBzB1PbY3KmT62K1JIV-9" value="" style="rounded=1;whiteSpace=wrap;html=1;fillColor=none;strokeColor=none;" vertex="1" parent="1">
          <mxGeometry x="414" y="160" width="40" height="40" as="geometry" />
        </mxCell>
      </root>
    </mxGraphModel>
  </diagram>
</mxfile>
